<?xml version="1.0" ?><svg height="1270mm" id="svg2" version="1.1" viewBox="0 0 4500 4500" width="1270mm" xmlns="http://www.w3.org/2000/svg" xmlns:cc="http://creativecommons.org/ns#" xmlns:dc="http://purl.org/dc/elements/1.1/" xmlns:inkscape="http://www.inkscape.org/namespaces/inkscape" xmlns:rdf="http://www.w3.org/1999/02/22-rdf-syntax-ns#" xmlns:sodipodi="http://sodipodi.sourceforge.net/DTD/sodipodi-0.dtd" xmlns:svg="http://www.w3.org/2000/svg"><defs id="defs4"/><g id="layer1" transform="translate(-3450.082,4128.5947)"><g id="g4593" transform="translate(-3076.3058,-6566.4353)"><path d="m 12986.09,7125.1309 c -54.154,0.09 -108.212,8.9104 -158.834,24.3593 -134.992,41.1973 -258.127,131.9285 -287.572,269.2813 -25.444,118.6847 -15.817,252.8726 76.025,352.7637 91.842,99.8911 249.168,153.3828 487.865,153.3828 a 75.0075,75.0075 0 1 0 0,-150 c -216.057,0 -326.468,-49.4633 -377.443,-104.9063 -50.976,-55.4429 -59.251,-128.9673 -39.779,-219.7969 12.97,-60.5035 86.24,-127.2135 184.687,-157.2578 90.454,-27.605 191.456,-22.1266 261.609,20.8282 299.968,939.371 396.82,1943.3594 280.934,2922.6448 a 75.0075,75.0075 0 0 0 1.656,26.748 c 42.774,173.693 187.13,287.866 348.143,321.578 a 75.0075,75.0075 0 0 0 36.5,8.992 l 26.603,0 c 24.429,1.871 48.982,1.894 73.381,0 l 2093.766,0 a 75.0075,75.0075 0 0 0 16.465,-1.83 c 161.367,-36.313 300.073,-147.819 370.209,-297.617 46.189,-98.652 61.474,-210.136 43.55,-317.5803 a 75.0075,75.0075 0 0 0 -73.974,-62.6602 l -362.5,0 0,-795.3105 a 75.0075,75.0075 0 0 0 -76.131,-76.0586 75.0075,75.0075 0 0 0 -73.869,76.0586 l 0,795.3105 -1593.641,0 a 75.0075,75.0075 0 0 0 -88.215,74.4805 c -0.385,76.669 4.786,150.952 -3.302,212.725 -8.089,61.772 -25.264,107.345 -71.118,146.91 a 75.0075,75.0075 0 0 0 -6.921,6.803 c -143.195,160.207 -449.113,87.954 -509.948,-116.118 113.862,-980.6006 19.437,-1984.0856 -274.568,-2926.361 l 2028.963,0 a 75.0075,75.0075 0 0 0 4.365,-0.127 c 62.13,-3.6226 126.917,14.374 178.277,49.5215 21.745,14.8808 39.233,32.1162 50.231,49.9688 10.452,16.9656 18.292,42.035 25.141,73.0566 l 106.25,481.25 a 75.0075,75.0075 0 1 0 146.472,-32.3379 l -106.25,-481.25 c -7.923,-35.8856 -18.415,-78.0231 -43.902,-119.3945 -24.94,-40.4844 -58.428,-71.2668 -93.229,-95.082 -74.499,-50.9827 -163.641,-77.638 -253.701,-76.1524 -4.873,0.08 -9.751,0.3011 -14.627,0.5469 l -2130.277,0 a 75.0075,75.0075 0 0 0 -16.141,1.5762 c -58.28,-27.176 -121.776,-39.0501 -185.15,-38.9453 z m 3756.537,137.3847 a 75.0075,75.0075 0 0 0 -69.945,50.6602 c -88.958,259.4499 -313.286,450.7603 -582.086,630.3535 -268.547,179.4233 -576.855,343.7078 -814.444,563.5664 0.19,-0.1684 0.377,-0.3375 0.567,-0.5059 l -1.244,1.129 c 0.225,-0.2085 0.452,-0.4148 0.677,-0.6231 -94.692,84.0634 -145.54,180.9342 -158.291,278.5352 -10.441,79.9246 2.829,157.5364 26.485,231.9179 l -348.408,287.0684 a 75.0075,75.0075 0 1 0 95.384,115.7656 l 348.758,-287.3574 c 104.37,52.2109 229.376,52.6802 355.236,22.4043 147.864,-35.5688 303.352,-113.0109 455.586,-213.8965 304.47,-201.7711 594.993,-496.6124 749.082,-765.2754 71.953,-125.4544 123.822,-278.531 133.328,-435.375 9.507,-156.8439 -24.877,-319.936 -131.554,-450.7754 a 75.0075,75.0075 0 0 0 -59.131,-27.5918 z m 10.275,240.0645 0,0 c 26.568,70.484 35.581,148.3866 30.682,229.2265 -7.834,129.2529 -52.755,263.5252 -113.721,369.8223 -136.586,238.1442 -417.468,526.4257 -701.826,714.8691 -142.179,94.2216 -285.459,163.6603 -407.809,193.0918 -70.638,16.9922 -132.114,20.7804 -184.316,11.5157 l 1290.406,-1063.2227 a 75.0075,75.0075 0 0 0 -49.383,-133.5234 75.0075,75.0075 0 0 0 -46.003,17.7578 L 15271.941,8912.416 c -7.532,-37.9419 -9.735,-73.7668 -5.347,-107.3535 8.122,-62.1735 35.91,-120.9446 109.57,-186.1758 a 75.0075,75.0075 0 0 0 1.244,-1.1269 c 216.993,-201.0096 519.243,-364.2535 796.518,-549.5078 233.202,-155.8092 451.981,-329.6503 578.976,-565.6719 z m -2911.287,360.7265 a 75.0075,75.0075 0 1 0 0,150 l 1387.697,0 a 75.0075,75.0075 0 1 0 0,-150 l -1387.697,0 z m 0,450.7813 a 75.0075,75.0075 0 1 0 0,150 l 1387.697,0 a 75.0075,75.0075 0 1 0 0,-150 l -1387.697,0 z m 0,468.457 a 75.0075,75.0075 0 1 0 0,150 l 1016.467,0 a 75.0075,75.0075 0 1 0 0,-150 l -1016.467,0 z m 0,450.7813 a 75.0075,75.0075 0 1 0 0,150 l 777.819,0 a 75.0075,75.0075 0 1 0 0,-150 l -777.819,0 z m 465.051,830.7358 1974.346,0 c 0.05,57.337 -12.395,115.033 -36.555,166.635 -48.544,103.683 -148.949,185.576 -260.195,213.051 l -1786.049,0 c 64.52,-65.07 92.767,-146.861 102.738,-223.006 7.128,-54.437 6.74,-107.46 5.715,-156.68 z" id="path4294" style="color:#000000;font-style:normal;font-variant:normal;font-weight:normal;font-stretch:normal;font-size:medium;line-height:normal;font-family:sans-serif;text-indent:0;text-align:start;text-decoration:none;text-decoration-line:none;text-decoration-style:solid;text-decoration-color:#000000;letter-spacing:normal;word-spacing:normal;text-transform:none;direction:ltr;block-progression:tb;writing-mode:lr-tb;baseline-shift:baseline;text-anchor:start;white-space:normal;clip-rule:nonzero;display:inline;overflow:visible;visibility:visible;opacity:1;isolation:auto;mix-blend-mode:normal;color-interpolation:sRGB;color-interpolation-filters:linearRGB;solid-color:#000000;solid-opacity:1;fill:#6c6da7;fill-opacity:1;fill-rule:evenodd;stroke:none;stroke-width:150;stroke-linecap:round;stroke-linejoin:round;stroke-miterlimit:4;stroke-dasharray:none;stroke-dashoffset:0;stroke-opacity:1;color-rendering:auto;image-rendering:auto;shape-rendering:auto;text-rendering:auto;enable-background:accumulate" transform="translate(-5954.7863,-4172.3044)"/><path d="m 16752.902,7502.5801 c -126.995,236.0216 -345.774,409.8627 -578.976,565.6719 -277.275,185.2543 -579.525,348.4982 -796.518,549.5078 a 75.0075,75.0075 0 0 1 -1.244,1.1269 c -73.66,65.2312 -101.448,124.0023 -109.57,186.1758 -4.388,33.5867 -2.185,69.4116 5.347,107.3535 l 1298.995,-1070.2988 a 75.0075,75.0075 0 0 1 46.003,-17.7578 75.0075,75.0075 0 0 1 49.383,133.5234 l -1290.406,1063.2227 c 52.202,9.2647 113.678,5.4765 184.316,-11.5157 122.35,-29.4315 265.63,-98.8702 407.809,-193.0918 284.358,-188.4434 565.24,-476.7249 701.826,-714.8691 60.966,-106.2971 105.887,-240.5694 113.721,-369.8223 4.899,-80.8399 -4.114,-158.7425 -30.682,-229.2265 l 0,0 z" id="path4583" style="fill:#f2a2bb;fill-opacity:1;fill-rule:evenodd;stroke:none;stroke-width:1px;stroke-linecap:butt;stroke-linejoin:miter;stroke-opacity:1" transform="translate(-5954.7863,-4172.3044)"/></g></g></svg>